<svg xmlns="http://www.w3.org/2000/svg" viewBox="0 0 32 32" width="32" height="32">
  <defs>
    <linearGradient id="f1" x1="0" y1="0" x2="1" y2="1">
      <stop offset="0%" stop-color="#FF6B35"/>
      <stop offset="100%" stop-color="#FFB347"/>
    </linearGradient>
    <linearGradient id="f2" x1="1" y1="0" x2="0" y2="1">
      <stop offset="0%" stop-color="#FFA07A"/>
      <stop offset="100%" stop-color="#C084FC"/>
    </linearGradient>
    <linearGradient id="f3" x1="0.5" y1="1" x2="0.5" y2="0">
      <stop offset="0%" stop-color="#FF9A76"/>
      <stop offset="100%" stop-color="#FF6B35"/>
    </linearGradient>
  </defs>
  <path d="M16 3 L6.25 8.6 L6.25 19.8 L11.1 17 L11.1 11.6 L16 8.8Z" fill="url(#f1)" opacity="0.92"/>
  <path d="M16 3 L25.75 8.6 L25.75 19.8 L20.9 17 L20.9 11.6 L16 8.8Z" fill="url(#f2)" opacity="0.92"/>
  <path d="M6.25 19.8 L16 25.4 L25.75 19.8 L20.9 17 L16 19.8 L11.1 17Z" fill="url(#f3)" opacity="0.92"/>
  <path d="M16 8.8 L20.9 11.6 L20.9 17 L16 19.8 L11.1 17 L11.1 11.6Z" fill="#0B0D11" opacity="0.30"/>
</svg>
