<?xml version="1.0" encoding="UTF-8" standalone="no"?>
<svg
   xmlns:dc="http://purl.org/dc/elements/1.1/"
   xmlns:cc="http://creativecommons.org/ns#"
   xmlns:rdf="http://www.w3.org/1999/02/22-rdf-syntax-ns#"
   xmlns:svg="http://www.w3.org/2000/svg"
   xmlns="http://www.w3.org/2000/svg"
   version="1.1"
   viewBox="0 0 340.09612 99.999992"
   data-name="Layer 3"
   id="Layer_3"
   width="340.09613"
   height="99.999992">
  <metadata
     id="metadata33">
    <rdf:RDF>
      <cc:Work
         rdf:about="">
        <dc:format>image/svg+xml</dc:format>
        <dc:type
           rdf:resource="http://purl.org/dc/dcmitype/StillImage" />
        <dc:title>Lockup_Dark</dc:title>
      </cc:Work>
    </rdf:RDF>
  </metadata>
  <defs
     id="defs4">
    <style
       id="style2">.cls-1{isolation:isolate;}.cls-2{fill:#ff9136;}.cls-3{fill:#3a3a3a;}</style>
    <style
       id="style259">.cls-1{fill:#3a3a3a;}</style>
  </defs>
  <title
     id="title6">Lockup_Dark</title>
  <path
     style="fill:#fdfdfd;fill-opacity:1;stroke-width:1.13232529"
     d="M 254.58834,4.0822692e-4 C 256.92673,-0.02229177 259.17472,0.90254823 260.82017,2.5642182 c 1.70616,1.61747 2.6557,3.87642 2.61752,6.22713 -0.0203,4.9019998 -3.98967,8.8705798 -8.89167,8.8898598 -2.34846,0.0385 -4.60551,-0.90931 -6.22145,-2.61387 h -0.002 c -1.67352,-1.65559 -2.59913,-3.92221 -2.56279,-6.2759998 -0.0381,-2.34881 0.91005,-4.60607 2.61387,-6.22327 1.74251,-1.70741997 3.7996,-2.56181997 6.17099,-2.56318997 0.0147,-2e-4 0.0295,-4.1e-4 0.0441,-6.2e-4 z M 326.39374,0.84069823 h 13.7024 V 75.729488 h -13.7024 z M 48.036361,2.5869982 c 3.67762,-0.017 6.59135,0.48509 7.7736,1.62583 3.09774,2.99075 4.34291,3.65805 10.04395,3.65805 3.11605,0.001 5.07124,-1.91558 6.33907,-3.05649 0.66327,-0.59937 1.54998,-0.93586 2.47385,-0.93877 h 10.37361 c -3.02589,1.86429 -3.15661,8.5520098 -3.15661,8.5520098 h 2.54405 c 0,0 -0.0816,-6.4002898 3.5557,-8.4838398 0.34096,0.0582 0.67234,0.15739 0.98579,0.2953 1.67072,0.73521 4.44156,2.93429 4.44156,9.4146998 0,4.66861 -1.10847,7.18555 -2.20866,8.5339 -0.79739,0.9649 -2.03196,1.5281 -3.33876,1.5231 h -13.97002 c -0.85465,0 -1.69468,-0.2067 -2.43294,-0.6079 -1.5707,-0.86 -2.36509,-3.94805 -9.95379,-2.84262 -11.03156,1.60832 -10.65405,17.38012 -10.65405,17.38012 h -11.5965 v 2.3408 h 8.9861 v 44.0799 h -21.20107 v -54.1037 c 0,-6.7036 -3.24144,-7.5781 -7.74084,-6.5462 -6.40538,1.4678 -12.3610797,9.7074 -15.3263957,13.121 -2.186309,2.5142 -3.96263502,2.4238 -3.97390201983,1.5758 -0.0099,-0.6618 0.69423899983,-2.3648 1.11685201983,-3.3574 C 6.8165713,21.218768 18.903351,9.9896882 27.764101,6.4449082 c 5.89192,-2.35909 14.14291,-3.82957 20.27226,-3.85791 z M 215.11734,22.175888 c 5.2301,0 9.93641,1.1851 14.11918,3.5553 4.13388,2.3182 7.5403,5.7422 9.83737,9.8878 2.37011,4.2205 3.55514,8.9448 3.55713,14.1735 0.001,5.2289 -1.1844,9.9532 -3.55713,14.1724 -2.29495,4.1441 -5.6994,7.5666 -9.83126,9.8835 -4.18277,2.3702 -8.88907,3.5557 -14.11919,3.5571 -5.30675,0 -10.0518,-1.1857 -14.23458,-3.5571 -4.13143,-2.3175 -7.53572,-5.7399 -9.83126,-9.8835 -2.37271,-4.2179 -3.5576,-8.9423 -3.5551,-14.1724 0,-5.2989 1.18498,-10.0418 3.5551,-14.2285 2.30803,-4.1211 5.71043,-7.5241 9.83126,-9.8328 4.18537,-2.3702 8.92821,-3.5553 14.22848,-3.5553 z m -31.34535,0 c 2.17749,-0.011 4.33479,0.4177 6.34417,1.2567 v 13.597 c -2.99773,-1.2553 -5.89162,-1.8829 -8.68147,-1.8829 -3.83582,0 -6.90349,1.4154 -9.20344,4.2468 -2.29993,2.8314 -3.45012,6.4147 -3.4521,10.7496 v 25.5838 h -13.70179 v -51.8775 h 12.86394 v 7.1123 h 0.83602 c 1.25522,-2.5117 3.26108,-4.603 6.01712,-6.274 2.65342,-1.6459 5.71476,-2.5155 8.83713,-2.5105 0.0468,-7e-4 0.0936,-0.001 0.14042,0 z m -57.87871,0 c 4.42029,-0.032 8.75747,1.2016 12.49927,3.5551 3.80075,2.3727 6.8171,5.6538 9.04815,9.843 2.23109,4.1893 3.34671,8.9322 3.34671,14.2285 0,5.3003 -1.11562,10.0432 -3.34671,14.2285 -2.23105,4.1854 -5.2474,7.4623 -9.04815,9.831 -3.74164,2.3542 -8.07878,3.5885 -12.49927,3.5572 -3.6955,0 -6.92013,-0.7494 -9.67356,-2.2489 -2.75344,-1.4996 -4.7932,-3.4001 -6.11989,-5.7014 h -0.83643 l 0.83643,7.4262 v 21.44 H 96.399251 v -74.4869 H 109.2634 v 6.1709 h 0.83643 c 1.32409,-2.2298 3.36385,-4.0949 6.11989,-5.5957 2.75603,-1.5007 5.98066,-2.2501 9.67356,-2.2475 z m 121.85413,1.6723 h 13.7022 v 57.5823 c 0,6.3295 -1.56908,11.0072 -4.70713,14.0335 -3.13805,3.0263 -7.18243,4.538602 -12.13316,4.536 -2.71833,0 -5.05419,-0.2503 -7.00719,-0.7389 v -13.2834 c 1.81916,0.9759 3.63251,1.4638 5.43997,1.4638 3.13678,0 4.70531,-2.079 4.70531,-6.237 z m 21.86105,0 h 13.71014 v 29.8096 c 0,3.5578 0.83685,6.2949 2.51047,8.2115 1.67365,1.9167 4.04452,2.8757 7.11241,2.877 3.69422,0 6.62203,-1.4294 8.78422,-4.2881 2.16221,-2.8587 3.23816,-6.4853 3.22784,-10.8799 v -25.7281 h 13.70241 v 51.8755 H 305.7918 v -6.6914 h -0.83826 c -1.6719,2.5782 -3.97697,4.6848 -6.69499,6.1184 -2.78852,1.4996 -5.89146,2.2489 -9.30888,2.2489 -6.33849,0 -11.14686,-1.952 -14.42527,-5.8566 -3.27839,-3.906 -4.91791,-9.3103 -4.91594,-16.2128 z m -248.035069,1.4971 c 0.21695,-9e-4 0.43604,0.026 0.65448,0.09 2.14968,0.6171 1.98898,2.9251 0.69579,4.1316 -3.30059,3.109 -5.1898,4.5138 -7.19157,6.8271 -2.18208,2.5207 -4.26822,2.2924 -4.12734,1.4535 0.11974,-0.6972 0.76192,-2.22 1.26765,-3.1772 1.98909,-3.7693 4.78697,-7.1829 6.23793,-8.3041 0.6238,-0.4811 1.52295,-1.016 2.46306,-1.0201 z m 101.601009,9.4803 c -2.40585,-0.011 -4.77077,0.6222 -6.8513,1.8303 -2.15145,1.2454 -3.92298,3.0532 -5.12434,5.2295 -1.29031,2.2714 -1.93536,4.9058 -1.93536,7.9035 0,2.9977 0.64505,5.6295 1.93536,7.8957 1.20023,2.1772 2.97204,3.9853 5.12434,5.2295 4.25967,2.461 9.51349,2.4416 13.75491,-0.051 v 0 c 2.16879,-1.2635 3.95702,-3.0881 5.17664,-5.2818 1.29031,-2.2674 1.93536,-4.8664 1.93536,-7.7966 0,-2.9977 -0.64505,-5.6301 -1.93536,-7.8975 -1.21193,-2.186 -3.00311,-3.9954 -5.17664,-5.2296 -2.10141,-1.2036 -4.4819,-1.8347 -6.90361,-1.8303 z m 91.9411,0 c -2.44018,-0.018 -4.84127,0.6132 -6.95631,1.8304 -2.14227,1.2385 -3.89713,3.0494 -5.06775,5.2295 -1.25524,2.2662 -1.88286,4.8985 -1.88286,7.8975 0,2.9991 0.62762,5.6311 1.88286,7.8959 1.16955,2.1809 2.92467,3.9919 5.06775,5.2294 2.11452,1.2186 4.51584,1.8512 6.95631,1.8324 2.40544,0.011 4.7698,-0.6233 6.84928,-1.8324 2.14255,-1.238 3.89746,-3.0489 5.06754,-5.2294 1.25523,-2.2648 1.88286,-4.8968 1.88286,-7.8959 0,-2.999 -0.62763,-5.6313 -1.88286,-7.8975 -1.17115,-2.1797 -2.92579,-3.9904 -5.06754,-5.2295 -2.08002,-1.2077 -4.44415,-1.8394 -6.84928,-1.8304 z"
     id="rect27" />
</svg>
